FFmpeg version SVN-r25716, Copyright (c) 2000-2010 the FFmpeg developers  built on Nov 10 2010 12:23:18 with gcc 4.1.2 20080704 (Red Hat 4.1.2-48)  configuration: --enable-libmp3lame --enable-shared --disable-mmx --arch=x86_64  libavutil     50.33. 0 / 50.33. 0  libavcore      0.12. 1 /  0.12. 1  libavcodec    52.94. 4 / 52.94. 4  libavformat   52.84. 0 / 52.84. 0  libavdevice   52. 2. 2 / 52. 2. 2  libavfilter    1.59. 0 /  1.59. 0  libswscale     0.12. 0 /  0.12. 0[mov,mp4,m4a,3gp,3g2,mj2 @ 0x110a14c0] max_analyze_duration reachedSeems stream 0 codec frame rate differs from container frame rate: 600.00 (600/1) -> 30.00 (30/1)Input #0, mov,mp4,m4a,3gp,3g2,mj2, from '/RAID10/data/converted_video_files/35272.mov':  Duration: 00:00:30.50, bitrate: 2440 kb/s    Stream #0.0(eng): Video: svq1, yuv410p, 203x195, 2438 kb/s, 30 fps, 30 tbr, 600 tbn, 600 tbc[buffer @ 0x110a6190] w:203 h:195 pixfmt:yuv410p[ffsink @ 0x110a6400] auto-inserting filter 'auto-inserted scaler 0' between the filter 'src' and the filter 'out'[scale @ 0x110a66f0] w:203 h:195 fmt:yuv410p -> w:203 h:195 fmt:yuv420p flags:0x4Output #0, flv, to '/RAID10/data/converted_video_files/35272.flv':  Metadata:    encoder         : Lavf52.84.0    Stream #0.0(eng): Video: flv, yuv420p, 203x195, q=2-31, 600 kb/s, 1k tbn, 24 tbcStream mapping:  Stream #0.0 -> #0.0Press [q] to stop encodingframe=   19 fps=  0 q=2.4 size=     212kB time=0.79 bitrate=2195.5kbits/s dup=0 drop=4    frame=   56 fps= 51 q=4.4 size=     397kB time=2.33 bitrate=1393.3kbits/s dup=0 drop=13    frame=  100 fps= 62 q=5.9 size=     575kB time=4.17 bitrate=1130.2kbits/s dup=0 drop=25    frame=  164 fps= 76 q=5.8 size=     830kB time=6.83 bitrate= 994.5kbits/s dup=0 drop=40    frame=  223 fps= 84 q=7.4 size=    1043kB time=9.29 bitrate= 920.0kbits/s dup=0 drop=55    frame=  301 fps= 95 q=5.2 size=    1279kB time=12.54 bitrate= 835.1kbits/s dup=0 drop=75    frame=  374 fps=103 q=6.3 size=    1518kB time=15.58 bitrate= 797.9kbits/s dup=0 drop=93    frame=  458 fps=110 q=6.2 size=    1819kB time=19.08 bitrate= 780.9kbits/s dup=0 drop=114    frame=  554 fps=118 q=6.3 size=    2150kB time=23.08 bitrate= 763.1kbits/s dup=0 drop=138    frame=  668 fps=129 q=6.7 size=    2455kB time=27.83 bitrate= 722.6kbits/s dup=0 drop=166    frame=  732 fps=137 q=7.4 Lsize=    2455kB time=30.50 bitrate= 659.4kbits/s dup=0 drop=183    video:2443kB audio:0kB global headers:0kB muxing overhead 0.476494%